<svg data-v-fde0c5aa="" xmlns="http://www.w3.org/2000/svg" viewBox="0 0 300 300" class="font"><!----><defs data-v-fde0c5aa=""><!----></defs><rect data-v-fde0c5aa="" fill="#E1F4FC" x="0" y="0" width="300px" height="300px" class="logo-background-square"></rect><defs data-v-fde0c5aa=""><linearGradient data-v-fde0c5aa="" gradientTransform="rotate(25)" id="3cfee37a-accd-4cad-80e1-5325a5afcecd" x1="0%" y1="0%" x2="100%" y2="0%"><stop data-v-fde0c5aa="" offset="0%" stop-color="#0D7CE9" stop-opacity="1"></stop><stop data-v-fde0c5aa="" offset="100%" stop-color="#15CFF1" stop-opacity="1"></stop></linearGradient></defs><g data-v-fde0c5aa="" id="350b14e2-bb19-4976-84ff-8e4eb8f06575" fill="url(#3cfee37a-accd-4cad-80e1-5325a5afcecd)" transform="matrix(1.7713476419448853,0,0,1.7713476419448853,38.512344708287465,134.09246736908318)"><path d="M2.89 12.67L0.84 12.67L0.84 2.42L2.89 2.42L2.89 6.52L7.67 6.52L7.67 2.41L9.72 2.41L9.72 12.67L7.67 12.67L7.67 8.44L2.89 8.44L2.89 12.67ZM11.42 9.26L11.42 9.26L11.42 9.26Q11.42 7.75 12.37 6.79L12.37 6.79L12.37 6.79Q13.33 5.84 14.83 5.84L14.83 5.84L14.83 5.84Q16.34 5.84 17.23 6.79L17.23 6.79L17.23 6.79Q18.12 7.75 18.12 9.26L18.12 9.26L18.12 9.94L13.40 9.94L13.40 9.94Q13.47 10.49 13.88 10.79L13.88 10.79L13.88 10.79Q14.29 11.10 14.83 11.10L14.83 11.10L14.83 11.10Q15.79 11.10 16.54 10.55L16.54 10.55L17.64 11.65L17.64 11.65Q16.88 12.67 14.83 12.67L14.83 12.67L14.83 12.67Q13.33 12.67 12.37 11.72L12.37 11.72L12.37 11.72Q11.42 10.76 11.42 9.26ZM16.20 8.57L16.20 8.57Q16.20 8.03 15.79 7.72L15.79 7.72L15.79 7.72Q15.38 7.41 14.83 7.41L14.83 7.41L14.83 7.41Q14.29 7.41 13.88 7.72L13.88 7.72L13.88 7.72Q13.47 8.03 13.47 8.57L13.47 8.57L16.20 8.57ZM21.38 5.83L21.38 6.59L21.38 6.59Q22.11 5.84 23.17 5.84L23.17 5.84L23.17 5.84Q23.50 5.84 23.80 5.89L23.80 5.89L23.50 7.78L23.50 7.78Q23.17 7.48 22.54 7.46L22.54 7.46L22.54 7.46Q21.85 7.51 21.38 8.47L21.38 8.47L21.38 12.67L19.47 12.67L19.47 6.04L21.38 5.83ZM26.95 15.55L25.03 15.54L25.03 6.04L26.95 5.83L26.95 6.38L26.95 6.38Q27.71 5.83 28.45 5.83L28.45 5.83L28.45 5.83Q30.02 5.83 30.95 6.86L30.95 6.86L30.95 6.86Q31.87 7.88 31.87 9.25L31.87 9.25L31.87 9.25Q31.87 10.62 30.95 11.64L30.95 11.64L30.95 11.64Q30.02 12.67 28.45 12.67L28.45 12.67L28.45 12.67Q27.43 12.60 26.95 12.11L26.95 12.11L26.95 15.55ZM26.95 8.63L26.95 8.63L26.95 9.74L26.95 9.74Q27.08 10.89 28.38 11.09L28.38 11.09L28.38 11.09Q30.02 10.96 30.23 9.39L30.23 9.39L30.23 9.39Q30.16 7.47 28.38 7.40L28.38 7.40L28.38 7.40Q27.08 7.61 26.95 8.63ZM35.15 12.67L33.24 12.67L33.24 5.83L35.15 5.83L35.15 12.67ZM33.17 4.20L33.17 4.20L33.17 4.20Q33.17 4.61 33.44 4.88L33.44 4.88L33.44 4.88Q33.71 5.15 34.19 5.15L34.19 5.15L34.19 5.15Q34.67 5.15 34.95 4.88L34.95 4.88L34.95 4.88Q35.22 4.61 35.22 4.20L35.22 4.20L35.22 4.20Q35.22 3.79 34.95 3.51L34.95 3.51L34.95 3.51Q34.67 3.23 34.18 3.23L34.18 3.23L34.18 3.23Q33.71 3.23 33.44 3.51L33.44 3.51L33.44 3.51Q33.17 3.79 33.17 4.20ZM38.73 8.33L38.73 8.33L38.73 12.67L36.82 12.67L36.82 6.04L38.73 5.83L38.73 6.45L38.73 6.45Q39.42 5.84 40.37 5.84L40.37 5.84L40.37 5.84Q41.67 5.84 42.36 6.62L42.36 6.62L42.36 6.62Q43.04 7.41 43.04 8.44L43.04 8.44L43.04 12.67L41.13 12.67L41.13 8.91L41.13 8.91Q41.13 8.23 40.78 7.85L40.78 7.85L40.78 7.85Q40.44 7.48 39.75 7.46L39.75 7.46L39.75 7.46Q39.16 7.50 38.73 8.33ZM44.28 9.26L44.28 9.26L44.28 9.26Q44.28 7.75 45.24 6.79L45.24 6.79L45.24 6.79Q46.20 5.84 47.70 5.84L47.70 5.84L47.70 5.84Q49.21 5.84 50.09 6.79L50.09 6.79L50.09 6.79Q50.98 7.75 50.98 9.26L50.98 9.26L50.98 9.94L46.27 9.94L46.27 9.94Q46.33 10.49 46.74 10.79L46.74 10.79L46.74 10.79Q47.15 11.10 47.70 11.10L47.70 11.10L47.70 11.10Q48.66 11.10 49.41 10.55L49.41 10.55L50.50 11.65L50.50 11.65Q49.75 12.67 47.70 12.67L47.70 12.67L47.70 12.67Q46.20 12.67 45.24 11.72L45.24 11.72L45.24 11.72Q44.28 10.76 44.28 9.26ZM49.07 8.57L49.07 8.57Q49.07 8.03 48.66 7.72L48.66 7.72L48.66 7.72Q48.25 7.41 47.70 7.41L47.70 7.41L47.70 7.41Q47.15 7.41 46.74 7.72L46.74 7.72L46.74 7.72Q46.33 8.03 46.33 8.57L46.33 8.57L49.07 8.57ZM61.38 10.63L59.48 10.63L59.48 4.47L61.38 4.47L61.38 4.47Q64.11 4.47 64.11 7.55L64.11 7.55L64.11 7.55Q64.11 10.62 61.38 10.63L61.38 10.63ZM57.43 12.67L61.38 12.67L61.38 12.67Q66.17 12.67 66.17 7.55L66.17 7.55L66.17 7.55Q66.17 2.41 61.38 2.41L61.38 2.41L57.43 2.41L57.43 12.67ZM69.09 7.82L68.34 6.66L68.34 6.66Q69.64 5.84 71.35 5.84L71.35 5.84L71.35 5.84Q72.58 5.84 73.29 6.52L73.29 6.52L73.29 6.52Q74.01 7.21 74.01 8.57L74.01 8.57L74.01 12.67L72.10 12.67L72.10 12.13L72.10 12.13Q71.26 12.67 70.59 12.67L70.59 12.67L70.59 12.67Q69.23 12.67 68.54 12.09L68.54 12.09L68.54 12.09Q67.86 11.51 67.86 10.49L67.86 10.49L67.86 10.49Q67.86 9.53 68.51 8.78L68.51 8.78L68.51 8.78Q69.15 8.03 70.59 8.03L70.59 8.03L70.59 8.03Q71.26 8.03 72.10 8.44L72.10 8.44L72.10 8.23L72.10 8.23Q72.08 7.48 71.00 7.41L71.00 7.41L71.00 7.41Q69.77 7.41 69.09 7.82L69.09 7.82ZM72.10 10.62L72.10 10.62L72.10 9.85L72.10 9.85Q71.83 9.32 70.80 9.32L70.80 9.32L70.80 9.32Q69.57 9.46 69.50 10.28L69.50 10.28L69.50 10.28Q69.57 11.09 70.80 11.16L70.80 11.16L70.80 11.16Q71.83 11.16 72.10 10.62ZM78.09 5.80L78.09 5.80Q79.05 5.80 79.58 6.03L79.58 6.03L79.58 6.03Q80.12 6.26 80.58 6.72L80.58 6.72L79.52 7.92L79.52 7.92Q79.05 7.37 78.35 7.37L78.35 7.37L78.35 7.37Q77.66 7.37 77.43 7.63L77.43 7.63L77.43 7.63Q77.20 7.88 77.43 8.09L77.43 8.09L77.43 8.09Q77.66 8.30 78.35 8.44L78.35 8.44L78.35 8.44Q79.37 8.53 80.02 9.02L80.02 9.02L80.02 9.02Q80.67 9.50 80.67 10.71L80.67 10.71L80.67 10.71Q80.67 11.68 79.91 12.21L79.91 12.21L79.91 12.21Q79.14 12.74 78.12 12.74L78.12 12.74L78.12 12.74Q77.15 12.74 76.50 12.47L76.50 12.47L76.50 12.47Q75.86 12.19 75.39 11.72L75.39 11.72L76.45 10.53L76.45 10.53Q76.92 11.08 77.90 11.17L77.90 11.17L77.90 11.17Q78.68 11.17 78.91 10.91L78.91 10.91L78.91 10.91Q79.14 10.66 78.98 10.40L78.98 10.40L78.98 10.40Q78.82 10.14 77.90 10.06L77.90 10.06L77.90 10.06Q77.06 9.96 76.37 9.54L76.37 9.54L76.37 9.54Q75.67 9.13 75.67 7.97L75.67 7.97L75.67 7.97Q75.67 6.91 76.46 6.35L76.46 6.35L76.46 6.35Q77.25 5.80 78.09 5.80L78.09 5.80ZM83.98 8.05L83.98 8.05L83.98 12.67L82.07 12.67L82.07 2.42L83.98 2.42L83.98 6.45L83.98 6.45Q84.67 5.84 85.62 5.84L85.62 5.84L85.62 5.84Q86.92 5.84 87.60 6.62L87.60 6.62L87.60 6.62Q88.29 7.41 88.29 8.44L88.29 8.44L88.29 12.67L86.37 12.67L86.37 8.91L86.37 8.91Q86.37 8.23 86.03 7.85L86.03 7.85L86.03 7.85Q85.69 7.48 85.00 7.46L85.00 7.46L85.00 7.46Q84.40 7.50 83.98 8.05ZM89.52 2.43L91.44 2.42L91.44 6.39L91.44 6.39Q91.92 5.91 92.94 5.84L92.94 5.84L92.94 5.84Q94.51 5.84 95.44 6.86L95.44 6.86L95.44 6.86Q96.36 7.89 96.36 9.26L96.36 9.26L96.36 9.26Q96.36 10.62 95.44 11.65L95.44 11.65L95.44 11.65Q94.51 12.67 92.94 12.67L92.94 12.67L92.94 12.67Q92.20 12.67 91.44 12.13L91.44 12.13L91.44 12.67L89.52 12.67L89.52 2.43ZM91.44 9.87L91.44 9.87Q91.57 10.90 92.87 11.10L92.87 11.10L92.87 11.10Q94.65 11.03 94.72 9.12L94.72 9.12L94.72 9.12Q94.51 7.55 92.87 7.42L92.87 7.42L92.87 7.42Q91.57 7.62 91.44 8.76L91.44 8.76L91.44 9.87ZM100.82 12.74L100.82 12.74Q99.33 12.74 98.33 11.74L98.33 11.74L98.33 11.74Q97.33 10.74 97.33 9.26L97.33 9.26L97.33 9.26Q97.33 7.77 98.33 6.77L98.33 6.77L98.33 6.77Q99.33 5.77 100.82 5.77L100.82 5.77L100.82 5.77Q102.31 5.77 103.30 6.77L103.30 6.77L103.30 6.77Q104.30 7.77 104.30 9.26L104.30 9.26L104.30 9.26Q104.30 10.75 103.30 11.74L103.30 11.74L103.30 11.74Q102.31 12.74 100.82 12.74L100.82 12.74ZM100.81 11.09L100.81 11.09L100.81 11.09Q101.59 11.09 102.07 10.56L102.07 10.56L102.07 10.56Q102.56 10.04 102.56 9.26L102.56 9.26L102.56 9.26Q102.56 8.48 102.07 7.96L102.07 7.96L102.07 7.96Q101.59 7.43 100.80 7.43L100.80 7.43L100.80 7.43Q100.03 7.43 99.54 7.96L99.54 7.96L99.54 7.96Q99.06 8.48 99.06 9.26L99.06 9.26L99.06 9.26Q99.06 10.04 99.54 10.56L99.54 10.56L99.54 10.56Q100.03 11.09 100.81 11.09ZM106.48 7.82L105.73 6.66L105.73 6.66Q107.03 5.84 108.74 5.84L108.74 5.84L108.74 5.84Q109.97 5.84 110.69 6.52L110.69 6.52L110.69 6.52Q111.41 7.21 111.41 8.57L111.41 8.57L111.41 12.67L109.49 12.67L109.49 12.13L109.49 12.13Q108.66 12.67 107.99 12.67L107.99 12.67L107.99 12.67Q106.62 12.67 105.94 12.09L105.94 12.09L105.94 12.09Q105.25 11.51 105.25 10.49L105.25 10.49L105.25 10.49Q105.25 9.53 105.90 8.78L105.90 8.78L105.90 8.78Q106.54 8.03 107.99 8.03L107.99 8.03L107.99 8.03Q108.65 8.03 109.49 8.44L109.49 8.44L109.49 8.23L109.49 8.23Q109.48 7.48 108.40 7.41L108.40 7.41L108.40 7.41Q107.17 7.41 106.48 7.82L106.48 7.82ZM109.49 10.62L109.49 10.62L109.49 9.85L109.49 9.85Q109.22 9.32 108.19 9.32L108.19 9.32L108.19 9.32Q106.96 9.46 106.89 10.28L106.89 10.28L106.89 10.28Q106.96 11.09 108.19 11.16L108.19 11.16L108.19 11.16Q109.22 11.16 109.49 10.62ZM114.88 5.83L114.88 6.59L114.88 6.59Q115.61 5.84 116.66 5.84L116.66 5.84L116.66 5.84Q117.00 5.84 117.30 5.89L117.30 5.89L117.00 7.78L117.00 7.78Q116.66 7.48 116.04 7.46L116.04 7.46L116.04 7.46Q115.34 7.51 114.88 8.47L114.88 8.47L114.88 12.67L112.96 12.67L112.96 6.04L114.88 5.83ZM123.13 2.42L125.04 2.43L125.04 12.67L123.13 12.67L123.13 12.13L123.13 12.13Q122.36 12.67 121.63 12.67L121.63 12.67L121.63 12.67Q120.05 12.67 119.13 11.65L119.13 11.65L119.13 11.65Q118.21 10.62 118.21 9.26L118.21 9.26L118.21 9.26Q118.21 7.89 119.13 6.86L119.13 6.86L119.13 6.86Q120.05 5.84 121.63 5.84L121.63 5.84L121.63 5.84Q122.65 5.91 123.13 6.39L123.13 6.39L123.13 2.42ZM123.13 9.87L123.13 9.87L123.13 8.76L123.13 8.76Q122.99 7.62 121.69 7.42L121.69 7.42L121.69 7.42Q120.05 7.55 119.85 9.12L119.85 9.12L119.85 9.12Q119.92 11.03 121.69 11.10L121.69 11.10L121.69 11.10Q122.99 10.90 123.13 9.87Z"></path></g><!----><!----></svg>